{"title":"Contraband 2012 TS XviD READNFO - NoZGT","uid":6991525,"size":1249580420,"categoryP":"video","categoryS":"movies","magnet":"?xt=urn:btih:48f87e0fa6d9a6b04f4581b7055619d9aed88f9c&amp;dn=Contraband+2012+TS+XviD+READNFO+-+NoZGT&amp;tr=udp%3A%2F%2Ftracker.openbittorrent.com%3A80&amp;tr=udp%3A%2F%2Fopen.demonii.com%3A1337&amp;tr=udp%3A%2F%2Ftracker.coppersurfer.tk%3A6969&amp;tr=udp%3A%2F%2Fexodus.desync.com%3A6969","seeders":0,"leechers":0,"uploader":"TvTeam","files":12,"time":1327720838,"description":". \n &lt;a href=&quot;\nhttp://www.torrenting.com&quot; rel=&quot;nofollow&quot; target=&quot;_NEW&quot;&gt;\nhttp://www.torrenting.com&lt;/a&gt;          :     Once &amp; For all ;)\n\n\n               www . Torrenting . Com \n\n(((((((((((((= Enjoy No RAR releases =))))))))))))))))))))\n\n\n...................................NFO:....................................\n\n.\n      Contraband 2012 TS XviD READNFO - NoZGT\n\nSources:\nVideo: [Russian] Contraband [2012] TS - Lum1x -[PhAnToM][PDU]\nAudio: Contraband 2012 TS Xvid READ NFO UnKnOwN\n\nNoZGT2.avi\nFormat                           : AVI\nFormat/Info                      : Audio Video Interleave\nFile size                        : 1.15 GiB\nDuration                         : 1h 42mn\nOverall bit rate                 : 1 608 Kbps\nWriting library                  : VirtualDub build 33848/release\n\nVideo\nID                               : 0\nFormat                           : MPEG-4 Visual\nFormat profile                   : Advanced Simple@L5\nFormat settings, BVOP            : Yes\nFormat settings, QPel            : No\nFormat settings, GMC             : No warppoints\nFormat settings, Matrix          : Default (H.263)\nMuxing mode                      : Packed bitstream\nCodec ID                         : XVID\nCodec ID/Hint                    : XviD\nDuration                         : 1h 42mn\nBit rate                         : 1 406 Kbps\nWidth                            : 720 pixels\nHeight                           : 304 pixels\nDisplay aspect ratio             : 2.35:1\nFrame rate                       : 25.000 fps\nColor space                      : YUV\nChroma subsampling               : 4:2:0\nBit depth                        : 8 bits\nScan type                        : Progressive\nBits/(Pixel*Frame)               : 0.257\nStream size                      : 1.01 GiB (87%)\nWriting library                  : XviD 1.2.1 (UTC 2008-12-04)\n\nAudio\nID                               : 1\nFormat                           : MPEG Audio\nFormat version                   : Version 1\nFormat profile                   : Layer 3\nCodec ID                         : 55\nCodec ID/Hint                    : MP3\nDuration                         : 1h 42mn\nBit rate mode                    : Constant\nBit rate                         : 192 Kbps\nChannel(s)                       : 2 channels\nSampling rate                    : 44.1 KHz\nStream size                      : 141 MiB (12%)\nAlignment                        : Split accross interleaves\nInterleave, duration             : 40 ms (1.00 video frame)\nInterleave, preload duration     : 500 ms\nWorkdone: \n\nWell load was done on this. Lol it only took me a whole day to try to sync this line audio. I went back to the main source of the video. The main source had more to it then what I can see on other sources. Basically I spent 3 days on chopping this video up trying to make it the best I could. If it goes out of sync for a second im sorry. Check screen and sample enjoy :)\n\nAudio\nI add like 30 sec at the end with Lum1x source because it cut off thx. &quot;No subs added sorry&quot;\n\nNoZGT","torrent":{"xt":"urn:btih:48f87e0fa6d9a6b04f4581b7055619d9aed88f9c","amp;dn":"Contraband+2012+TS+XviD+READNFO+-+NoZGT","amp;tr":["udp%3A%2F%2Ftracker.openbittorrent.com%3A80","udp%3A%2F%2Fopen.demonii.com%3A1337","udp%3A%2F%2Ftracker.coppersurfer.tk%3A6969","udp%3A%2F%2Fexodus.desync.com%3A6969"],"infoHash":"48f87e0fa6d9a6b04f4581b7055619d9aed88f9c","infoHashBuffer":{"type":"Buffer","data":[72,248,126,15,166,217,166,176,79,69,129,183,5,86,25,217,174,216,143,156]},"announce":[],"urlList":[]}}